<?xml version="1.0" encoding="UTF-8"?>
<svg id="Layer_2" data-name="Layer 2" xmlns="http://www.w3.org/2000/svg" viewBox="0 0 249.97 239.87">
  <defs>
    <style>
      .cls-1, .cls-2, .cls-3, .cls-4 {
        stroke-miterlimit: 10;
      }

      .cls-1, .cls-2, .cls-3, .cls-4, .cls-5 {
        stroke: #201751;
      }

      .cls-1, .cls-3, .cls-4, .cls-5 {
        stroke-width: 4px;
      }

      .cls-1, .cls-5 {
        fill: #fff;
      }

      .cls-2 {
        fill: #201751;
      }

      .cls-3 {
        stroke-linecap: round;
      }

      .cls-3, .cls-4 {
        fill: none;
      }

      .cls-5 {
        stroke-linejoin: round;
      }
    </style>
  </defs>
  <g id="Layer_1-2" data-name="Layer 1">
    <g>
      <path class="cls-5" d="M1.93,195.62c12.45-46.77,51.51-80.89,97.76-80.81,46.24,.08,85.2,34.32,97.49,81.14"/>
      <path class="cls-1" d="M248.02,239.41c-7.94-33.96-35.77-59.04-68.9-59.04s-60.97,25.08-68.9,59.04"/>
      <path class="cls-1" d="M139.71,153.8c0,21.76,17.64,42.15,39.4,42.15s39.4-20.39,39.4-42.15c-.61-20.6-18.02-37.11-39.4-37.11s-39.4,16.43-39.4,37.11Z"/>
      <circle class="cls-2" cx="161.94" cy="162.14" r="3.33"/>
      <circle class="cls-2" cx="196.29" cy="162.14" r="3.33"/>
      <path class="cls-3" d="M190.22,179.27c-2.96,2.55-6.85,4.1-11.1,4.1s-8.14-1.55-11.1-4.1"/>
      <path class="cls-4" d="M139.71,152.77c8.76-.07,32.86,.86,49.25-17.57,2.08-2.34,5.74-2.22,7.63,.27,4.12,5.42,11.63,13.44,21.92,16.78"/>
      <path class="cls-1" d="M43.77,54.55c0,30.81,24.98,59.67,55.79,59.67s55.79-28.86,55.79-59.67c-.86-29.16-25.52-52.55-55.79-52.55S43.77,25.27,43.77,54.55Z"/>
      <circle class="cls-2" cx="75.23" cy="66.35" r="4.71"/>
      <circle class="cls-2" cx="123.88" cy="66.35" r="4.71"/>
      <path class="cls-3" d="M115.27,90.6c-4.2,3.61-9.7,5.8-15.72,5.8s-11.52-2.19-15.72-5.8"/>
      <path class="cls-4" d="M43.77,53.09c12.4-.11,46.52,1.22,69.73-24.88,2.94-3.31,8.13-3.15,10.8,.38,5.83,7.68,16.46,19.03,31.04,23.76"/>
      <path class="cls-5" d="M234.06,61.91c0-8.58-6.96-15.54-15.54-15.54-6.45,0-11.98,5.85-14.33,11.44-2.35-5.59-7.88-11.44-14.33-11.44-8.58,0-15.54,6.96-15.54,15.54,0,.02,0,.05,0,.07-.04,1.16-.13,16.64,23,35.22,4.01,3.22,9.73,3.22,13.74,0,23.13-18.58,23.04-34.05,23-35.22,0-.02,0-.05,0-.07Z"/>
    </g>
  </g>
</svg>